# xmcd CD database file
#
# Track frame offsets:
#	150
#	23628
#	48485
#	70420
#	98667
#	129485
#	160893
#	178833
#	201208
#	226509
#	247544
#	272681
#
# Disc length: 3958 seconds
#
# Revision: 0
# Processed by: cddbd v1.5.2PL0 Copyright (c) Steve Scherf et al.
# Submitted via: CDex 1.77
#
DISCID=940f740c
DTITLE=Chris Cheek - Saturday Songs
DYEAR=2015
DGENRE=Jazz
TTITLE0=String Finger
TTITLE1=Ginger Something
TTITLE2=Eye Factory
TTITLE3=Bucky's Blues
TTITLE4=Either Way
TTITLE5=Slow Ships
TTITLE6=Saturday Song
TTITLE7=Alhambros
TTITLE8=Forever Green
TTITLE9=Strawberry Jam
TTITLE10=While You Sleep
TTITLE11=Windmill Hill
EXTD=YEAR: 2015
EXTT0=
EXTT1=
EXTT2=
EXTT3=
EXTT4=
EXTT5=
EXTT6=
EXTT7=
EXTT8=
EXTT9=
EXTT10=
EXTT11=
PLAYORDER=
